<svg id="Layer_1" data-name="Layer 1" xmlns="http://www.w3.org/2000/svg" viewBox="0 0 185.65 236.57"><defs><style>.cls-1{fill:#fff;}</style></defs><title>logo_busk</title><path class="cls-1" d="M918.59-1549.21a77.22,77.22,0,0,0-16.26-7.84,36.54,36.54,0,0,0,6-13.06c0.09-.35.17-0.66,0.26-0.93a60.46,60.46,0,0,0-4.77-47.54c-10.33-18.47-32.24-31.87-52.11-31.87-4.41,0-75.12.77-78.13,0.8l-7.6.08v7.68c0,11.85-.61,24.19-1.17,37.26-2.75,63.58-5.94,135.65,54.38,175a96.29,96.29,0,0,0,52.27,15.77c15.86,0,31.25-4.2,44.09-12.66a75.87,75.87,0,0,0,33.21-53.84C952-1507.38,939.55-1535.68,918.59-1549.21Zm-60.58-40,0-.19a21.4,21.4,0,0,1-16.14-3.44,21.59,21.59,0,0,1-5.54-30,21.47,21.47,0,0,1,13.94-9c6.54,10.22,8.3,21.83,8.51,30.38A69.05,69.05,0,0,1,858-1589.19ZM780.25-1604c0.45-10.47.88-20.49,1-30.25l44.55-.47a37.36,37.36,0,0,0-2.36,3.08A37.13,37.13,0,0,0,833-1580a36.81,36.81,0,0,0,19.76,6.49c-4.26,8.75-10.37,17.13-16.71,25.8s-13.12,18-18.12,28c-9.16,18.38-11.83,38.54-7.5,56.78a70.59,70.59,0,0,0,2.77,8.9C775.35-1490.25,777.84-1548,780.25-1604ZM933.37-1482.2A60.19,60.19,0,0,1,907-1439.5c-14.94,9.84-34.93,12.34-54.05,7.73-13.26-6-23.76-19.34-27.42-34.78-3.49-14.71-1.25-31.15,6.3-46.28,4.41-8.85,10.41-17.06,16.76-25.74,10.48-14.33,21.31-29.16,24.56-47.18a80.35,80.35,0,0,0,1.1-16,79.39,79.39,0,0,0-6.07-29.17c9,4.21,17.31,11.43,22.08,20a44.68,44.68,0,0,1,3.57,35.13c-0.18.55-.35,1.17-0.53,1.89-0.71,2.77-1.91,7.42-10.39,15.71l-11.09,10.88,15.38,2.34a66.39,66.39,0,0,1,23,8.88C926.34-1525.73,935.88-1503.54,933.37-1482.2Z" transform="translate(-763.63 1650.45)"/><path class="cls-1" d="M879.67-1521.37A33.67,33.67,0,0,0,846-1487.74a33.67,33.67,0,0,0,33.63,33.63,33.67,33.67,0,0,0,33.63-33.63A33.67,33.67,0,0,0,879.67-1521.37Zm0,51.74a18.13,18.13,0,0,1-18.11-18.11,18.13,18.13,0,0,1,18.11-18.11,18.13,18.13,0,0,1,18.11,18.11A18.13,18.13,0,0,1,879.67-1469.63Z" transform="translate(-763.63 1650.45)"/></svg>