<?xml version="1.0"?><svg width="1600" height="1200" xmlns="http://www.w3.org/2000/svg">
 <title>orangeman joy</title>
 <metadata id="metadata12390">image/svg+xmlOther map symbolsMohamed IbrahimPublic Domainclker.comother map symbols</metadata>
 <g>
  <title>Layer 1</title>
  <g externalResourcesRequired="false" id="layer1">
   <path id="svg_6" fill="#ff7f00" fill-rule="nonzero" d="m882.86084,333.007996l-154.095398,0l-262.764832,-197.768661c-20.486755,-16.232758 -54.688354,-17.038345 -76.246613,-1.340729c-21.556274,15.429901 -22.625824,41.192078 -2.139099,57.423843l274.524384,207.027496l0,686.017487c0,24.953735 26.54187,44.811768 59.142883,44.811768c33.135681,0 59.501404,-19.858032 59.501404,-44.811768l0,-372.055908l48.10022,0l0.354553,372.055908c0,24.953735 26.722046,44.811768 59.501404,44.811768c32.777222,0 59.142822,-19.858032 59.142822,-44.811768l-0.354614,-686.017487l274.520508,-207.027496c20.486816,-16.231766 19.417358,-41.993942 -2.139038,-57.423843c-21.554565,-15.697617 -55.57959,-14.892029 -76.066284,1.340729l-260.9823,197.768661z"/>
   <path id="svg_7" fill="#ff7f00" fill-rule="nonzero" d="m802.603455,283.949371c58.154358,0 105.317688,-45.421478 105.317688,-101.432343c0,-55.667099 -47.16333,-101.090454 -105.317688,-101.090454c-57.801331,0 -104.785278,45.423355 -104.785278,101.090454c0,56.010864 46.983948,101.432343 104.785278,101.432343"/>
  </g>
 </g>
</svg>